<?xml version="1.0" standalone="no"?>
<!DOCTYPE svg PUBLIC "-//W3C//DTD SVG 20010904//EN"
 "http://www.w3.org/TR/2001/REC-SVG-20010904/DTD/svg10.dtd">
<svg version="1.0" xmlns="http://www.w3.org/2000/svg"
 width="256.000000pt" height="256.000000pt" viewBox="0 0 256.000000 256.000000"
 preserveAspectRatio="xMidYMid meet">
<metadata>
Created by potrace 1.14, written by Peter Selinger 2001-2017
</metadata>
<g transform="translate(0.000000,256.000000) scale(0.100000,-0.100000)"
fill="#000000" stroke="none">
<path d="M1460 2271 c-42 -17 -81 -58 -95 -100 -12 -37 -84 -288 -100 -351
-24 -94 -79 -289 -85 -305 -7 -17 -17 -51 -25 -90 -2 -5 -13 -44 -25 -85 -12
-41 -24 -82 -25 -90 -2 -8 -4 -15 -5 -15 -1 0 -3 -7 -5 -16 -2 -14 -68 -248
-110 -394 -101 -351 -109 -392 -86 -445 45 -109 178 -134 258 -48 24 25 49 80
57 123 3 15 12 48 20 73 8 26 49 171 91 322 42 151 80 286 84 300 5 14 14 43
20 65 15 53 141 506 146 525 14 49 47 167 69 245 39 140 39 166 -4 233 -30 47
-126 75 -180 53z"/>
<path d="M1826 1890 c-80 -24 -128 -92 -121 -172 6 -52 19 -69 220 -271 l168
-169 -172 -171 c-94 -95 -178 -183 -188 -196 -9 -14 -17 -48 -19 -79 -2 -44 2
-62 23 -93 47 -71 151 -90 219 -40 72 53 488 479 506 518 20 45 15 103 -12
148 -11 17 -131 141 -268 278 -196 195 -254 247 -275 247 -14 0 -31 2 -39 4
-7 2 -26 0 -42 -4z"/>
<path d="M620 1870 c-19 -10 -144 -128 -277 -262 -206 -208 -243 -249 -252
-285 -12 -43 -4 -98 18 -132 17 -27 457 -464 495 -492 65 -48 168 -32 216 34
32 42 38 120 13 164 -10 18 -96 111 -192 208 l-174 174 163 163 c197 197 212
216 218 273 12 126 -118 214 -228 155z"/>
</g>
</svg>
